<svg xmlns="http://www.w3.org/2000/svg" viewBox="0 0 841.89 595.28"><defs><style>.cls-1{fill:#efefef;}.cls-2{fill:#f4deba;}.cls-3{fill:#c83855;}.cls-10,.cls-11,.cls-12,.cls-13,.cls-14,.cls-16,.cls-19,.cls-3,.cls-4,.cls-5,.cls-6,.cls-7,.cls-8,.cls-9{stroke:#542141;}.cls-10,.cls-11,.cls-12,.cls-13,.cls-14,.cls-15,.cls-16,.cls-17,.cls-18,.cls-19,.cls-3,.cls-4,.cls-5,.cls-6,.cls-7,.cls-8,.cls-9{stroke-miterlimit:10;}.cls-10,.cls-11,.cls-12,.cls-13,.cls-15,.cls-16,.cls-17,.cls-18,.cls-3,.cls-4,.cls-5,.cls-6,.cls-7,.cls-8,.cls-9{stroke-width:5px;}.cls-4{fill:#ce5e36;}.cls-5{fill:#d98638;}.cls-13,.cls-14,.cls-19,.cls-20,.cls-6{fill:#542141;}.cls-17,.cls-18,.cls-7{fill:none;}.cls-11,.cls-13,.cls-17,.cls-7{stroke-linecap:round;}.cls-8{fill:#5f9aaf;}.cls-9{fill:#c98f5e;}.cls-10,.cls-15{fill:#fff;}.cls-11{fill:#2b2129;}.cls-12{fill:#82b899;}.cls-14{stroke-width:2px;}.cls-15,.cls-17,.cls-18{stroke:#542041;}.cls-16{fill:#eab832;}</style></defs><g id="Layer_4" data-name="Layer 4"><rect class="cls-1" width="842.08" height="595.28"/><rect class="cls-2" y="1.28" width="842.08" height="595.28"/></g><g id="Layer_3" data-name="Layer 3"><path class="cls-3" d="M551.65,218.17v9.49H537.51c0-1.5,0-4.92,0-6.25.2-21.44.23-6.08.13-18.5a2.55,2.55,0,0,1,4.64-1.49C544.84,205,551.65,216,551.65,218.17Z"/><path class="cls-4" d="M655.16,384.49l-47.68.14V303h48.16a10.77,10.77,0,0,1,8.5,4.16l22.17,28.47a10.77,10.77,0,0,1,.24,12.92L663.84,380A10.76,10.76,0,0,1,655.16,384.49Z"/><path class="cls-3" d="M482.31,196.72v28.49H468.16c0-1.5,0-7.92,0-9.25.19-21.44.22-22.08.13-34.5A2.54,2.54,0,0,1,473,180l7.4,10.57A10.76,10.76,0,0,1,482.31,196.72Z"/><path class="cls-5" d="M626.49,313.72v140a3.43,3.43,0,0,1-3.42,3.41h-4.62a3.46,3.46,0,0,1-3.46-3.46v-4.6a5.62,5.62,0,0,0-11.24,0v4.6a3.47,3.47,0,0,1-3.47,3.46h-4.44a3.42,3.42,0,0,1-3.42-3.42c0-16-.11-64.55-.11-66.55a8.38,8.38,0,0,0-.2-1,4.41,4.41,0,0,0-.41-.66,1.67,1.67,0,0,0-.23-.23A1.92,1.92,0,0,0,591,385a3.66,3.66,0,0,0-.52-.23,4.67,4.67,0,0,0-.76-.12H532.45a2.49,2.49,0,0,0-2.21,2.21c0,.1,0,.19,0,.29v66.61a3.43,3.43,0,0,1-3.42,3.41h-4.62a3.46,3.46,0,0,1-3.46-3.46v-4.6a5.62,5.62,0,0,0-11.24,0v4.6a3.47,3.47,0,0,1-3.47,3.46h-4.44a3.4,3.4,0,0,1-3.32-2.62v0c0-14.37-.12-64-.13-65.48,0-.64,0-1.26,0-1.87a2.45,2.45,0,0,0,0-.27.69.69,0,0,0,0-.2,2.5,2.5,0,0,0-.07-.26,0,0,0,0,0,0,0c-.05-.13-.1-.26-.16-.38a2.09,2.09,0,0,0-.17-.28,1.33,1.33,0,0,0-.14-.19,2.39,2.39,0,0,0-.86-.68.88.88,0,0,0-.2-.09l-.16-.05a1.38,1.38,0,0,0-.39-.09l-.36,0h-8.74a2.55,2.55,0,0,0-2.55,2.55c0,3.49.06,54.77.05,66.59h0a3.4,3.4,0,0,1-3.4,3.38h-4.7a3.46,3.46,0,0,1-3.46-3.46v-4.31A5.86,5.86,0,0,0,465,443.5a5.64,5.64,0,0,0-5.46,5.62v4.6a3.47,3.47,0,0,1-3.47,3.46h-4.44a3.42,3.42,0,0,1-3.42-3.42c0-19.22-.17-102.34-.17-102.34a2.55,2.55,0,0,0,4.35,1.81l14.34-14.32a2.55,2.55,0,0,1,3.61,0l17,17a2.56,2.56,0,0,0,1.09.65l.24.06a2.69,2.69,0,0,0,1,0,1.48,1.48,0,0,0,.41-.12A2.49,2.49,0,0,0,491,356l17-17a2.41,2.41,0,0,1,.4-.33,3.88,3.88,0,0,1,.45-.24l.24-.08a2.43,2.43,0,0,1,1.7.08,2.27,2.27,0,0,1,.84.55l0,0,14.2,14.2a1.62,1.62,0,0,0,.2.18,2.55,2.55,0,0,0,4.2-2V303h85.49A10.77,10.77,0,0,1,626.49,313.72Z"/><path class="cls-6" d="M510.19,196.52V223H496.05c0-1.5,0-5.92,0-7.25.2-21.44.23-22.08.13-34.5a2.55,2.55,0,0,1,4.64-1.49c2.52,3.61,5.49,7.85,7.4,10.57A10.75,10.75,0,0,1,510.19,196.52Z"/><path class="cls-3" d="M641.41,287.63h-30.6L593,303h0c0-13.28,0-26.36,0-39.4,0-7,0-14,0-21h0q0-10.36,0-20.78h2.2a10.8,10.8,0,0,1,8.68,4.41c13.62,18.47,27.87,36.3,41,54.74A4.25,4.25,0,0,1,641.41,287.63Z"/><path class="cls-7" d="M610.81,287.63c-1.66-2.32-17.95-24.11-19.57-26.46"/><path class="cls-7" d="M626.49,287.63c-1.82-2.54-33.82-45.6-35.25-47.67"/><path class="cls-6" d="M593,263.55c0,13,0,26.12,0,39.4h-14c0-7,0-13.66.05-20.09,0-17,0-32.61,0-50.29a10.78,10.78,0,0,1,10.77-10.81H593q0,10.43,0,20.78h0C593,249.56,593,256.54,593,263.55Z"/><path class="cls-8" d="M530.22,317.78v33.58a2.53,2.53,0,0,1,0,.28,2.58,2.58,0,0,1-4.19,1.72l-.19-.18L511.63,339l0,0a2.23,2.23,0,0,0-.83-.55,2.43,2.43,0,0,0-1.7-.08l-.24.08a3.21,3.21,0,0,0-.45.24,2.12,2.12,0,0,0-.41.33l-17,17a2.66,2.66,0,0,1-.93.59,1.45,1.45,0,0,1-.42.12,2.64,2.64,0,0,1-1,0,.84.84,0,0,1-.24-.06,2.54,2.54,0,0,1-1.1-.65l-17-17a2.55,2.55,0,0,0-3.61,0l-14.35,14.32a2.54,2.54,0,0,1-4.34-1.81V317.94a2.56,2.56,0,0,0,4.34,1.53l14.4-14.38a2.53,2.53,0,0,1,3.6,0l17.08,17.07a2.53,2.53,0,0,0,3.6,0l17-17a2.53,2.53,0,0,1,3.6,0l14,14a2.64,2.64,0,0,0,3.18.45l.37-.23a2.59,2.59,0,0,0,.86-1.18c0-.06,0-.11,0-.17a.65.65,0,0,0,.06-.24S530.22,317.75,530.22,317.78Z"/><path class="cls-9" d="M513.82,246.12l-.05-.05-13.87-13.3a3,3,0,0,0-.4-.32,2.57,2.57,0,0,0-3.21.4l-12.72,13.3a2.51,2.51,0,0,0-.43.61L483,247a2.51,2.51,0,0,0-.14.66,1.86,1.86,0,0,1,.13-.46.57.57,0,0,1,.11-.22,2.26,2.26,0,0,1,.43-.61l12.72-13.3.05-.05a2.46,2.46,0,0,1,3.15-.35,2.59,2.59,0,0,1,.42.32l13.86,13.3,0,0a2.52,2.52,0,0,1,.73,1.46A2.51,2.51,0,0,0,513.82,246.12Zm-45.66-19.26a1.21,1.21,0,0,0,0-.19V222a.13.13,0,0,0,0,.06Z"/><path class="cls-10" d="M514.54,247.78a2.5,2.5,0,0,1-.77,2l-13.87,13.3a.07.07,0,0,1,0,0l-.19.16a2.61,2.61,0,0,1-.58.33,2.79,2.79,0,0,1-.47.14,1.66,1.66,0,0,1-.22,0,2.57,2.57,0,0,1-2.1-.78l-12.72-13.29a.12.12,0,0,1-.05-.05,1.46,1.46,0,0,1-.16-.19,2.5,2.5,0,0,1-.23-.39c0-.07-.06-.13-.1-.2a2.63,2.63,0,0,1-.15-1.14.15.15,0,0,1,0-.07A2.51,2.51,0,0,1,483,247l.11-.22a2.51,2.51,0,0,1,.43-.61l12.72-13.3a2.57,2.57,0,0,1,3.21-.4,3,3,0,0,1,.4.32l13.87,13.3.05.05A2.51,2.51,0,0,1,514.54,247.78Z"/><line class="cls-7" x1="498.87" y1="241.89" x2="498.87" y2="253.72"/><line class="cls-7" x1="554.68" y1="354.52" x2="547.09" y2="346.59"/><line class="cls-7" x1="605" y1="329.42" x2="596.5" y2="320.54"/><line class="cls-7" x1="585.97" y1="329.03" x2="577.78" y2="320.49"/><line class="cls-11" x1="118.4" y1="290.04" x2="118.79" y2="262.07"/><path class="cls-12" d="M530.22,281.49v35.78a2.1,2.1,0,0,1-.05.51.65.65,0,0,1-.06.24c0,.06,0,.11,0,.17a2.59,2.59,0,0,1-.86,1.18l-.37.23a2.64,2.64,0,0,1-3.18-.45l-14-14a2.53,2.53,0,0,0-3.6,0l-17,17a2.53,2.53,0,0,1-3.6,0l-17.08-17.07a2.53,2.53,0,0,0-3.6,0l-14.4,14.38a2.56,2.56,0,0,1-4.34-1.53V228.36a8.22,8.22,0,0,1,8.14-8.23l12-.12v7a2.67,2.67,0,0,1-.75,1.54l-17.57,17.58a2.54,2.54,0,0,0-.76,1.75v.07a2.56,2.56,0,0,0,.75,2l.13.12,17.44,17.45,0,0a2.63,2.63,0,0,1,.29.37h0a2.5,2.5,0,0,1,.31.66h0a2.21,2.21,0,0,1,.05.25.77.77,0,0,1,0,.25,2.26,2.26,0,0,1,0,.26v7.85a4.27,4.27,0,0,0,4.25,4.26C484.08,281.47,516.77,281.51,530.22,281.49Z"/><line class="cls-11" x1="109.66" y1="275.86" x2="127.54" y2="276.25"/><line class="cls-11" x1="147.18" y1="331.8" x2="147.57" y2="303.82"/><line class="cls-11" x1="138.44" y1="317.62" x2="156.31" y2="318.01"/><line class="cls-13" x1="568.84" y1="145.13" x2="569.24" y2="117.15"/><line class="cls-13" x1="560.1" y1="130.95" x2="577.98" y2="131.34"/><line class="cls-11" x1="691.28" y1="239.27" x2="691.67" y2="211.29"/><line class="cls-11" x1="682.54" y1="225.09" x2="700.41" y2="225.48"/><circle class="cls-14" cx="602.02" cy="162.29" r="3.98"/><circle class="cls-14" cx="163.64" cy="243.7" r="3.98"/><circle class="cls-14" cx="689.27" cy="382.82" r="3.98"/><line class="cls-7" x1="656.52" y1="341.09" x2="648.27" y2="332.46"/><circle class="cls-14" cx="432.19" cy="290.03" r="3.98"/><path class="cls-4" d="M578.32,453.77a3.42,3.42,0,0,1-3.42,3.41h-4.65a3.41,3.41,0,0,1-3.42-3.42v-4.64a5.63,5.63,0,0,0-11.25,0v4.64a3.41,3.41,0,0,1-3.42,3.42h-4.49a3.41,3.41,0,0,1-3.41-3.42c0-19.22,0-52.27-.18-69.11h34.19C578.32,400.62,578.33,434.3,578.32,453.77Z"/><path class="cls-15" d="M561.2,265.14H516.09a2.5,2.5,0,0,1-2.2-1.78,4,4,0,0,1,0-1.58.28.28,0,0,1,0-.12,2.41,2.41,0,0,1,.59-.86l.05,0,11.19-10.7.06-.05a4.21,4.21,0,0,1,2.88-1.13h32.35Z"/><path class="cls-16" d="M561.2,265.14H516.09a2.5,2.5,0,0,1-2.2-1.78,2.38,2.38,0,0,1,0-1.58.28.28,0,0,1,0-.12,2.41,2.41,0,0,1,.59-.86l.05,0,10.77-10.35c.11-.11.22-.2.34-.3l.08,0,.06-.05a4.21,4.21,0,0,1,2.88-1.13h32.35s-.2-12.27-.2-15.89c0-6.77-3.23-12.78-9.67-12.78L472.43,220a4.25,4.25,0,0,0-4.26,4.25v2.4a1.21,1.21,0,0,1,0,.19V227a2.67,2.67,0,0,1-.75,1.54l-17.57,17.58a2.54,2.54,0,0,0-.76,1.75v.07a2.56,2.56,0,0,0,.75,2l17.6,17.6a2.11,2.11,0,0,1,.3.37h0a2.22,2.22,0,0,1,.31.66h0a1.14,1.14,0,0,1,.06.25c0,.09,0,.17,0,.25a2.26,2.26,0,0,1,0,.26v7.86a4.25,4.25,0,0,0,4.24,4.25c11.67,0,44.35.05,57.81,0l20,0a11,11,0,0,0,11-11ZM499.9,263l0,0-.19.16a2.46,2.46,0,0,1-.59.33,2.69,2.69,0,0,1-.46.14,1.6,1.6,0,0,1-.23,0,2.55,2.55,0,0,1-2.09-.78l-12.73-13.29,0,0a1.46,1.46,0,0,1-.16-.19,2.55,2.55,0,0,1-.24-.39l-.09-.2a2.63,2.63,0,0,1-.16-1.14.15.15,0,0,1,0-.07A2.53,2.53,0,0,1,483,247c0-.08.07-.15.1-.22a2.51,2.51,0,0,1,.43-.61l12.73-13.3a2.56,2.56,0,0,1,3.2-.4,3,3,0,0,1,.41.32l13.86,13.3,0,.05a2.47,2.47,0,0,1,.73,1.66,2.51,2.51,0,0,1-.78,2Z"/><line class="cls-17" x1="547.07" y1="241.15" x2="534.71" y2="228.23"/><line class="cls-17" x1="472.55" y1="260.17" x2="460.18" y2="247.25"/><path class="cls-15" d="M514.54,247.77a2.51,2.51,0,0,1-.78,2L499.9,263l0,0-.19.16a2.46,2.46,0,0,1-.59.33,2.69,2.69,0,0,1-.46.14,1.6,1.6,0,0,1-.23,0,2.55,2.55,0,0,1-2.09-.78l-12.73-13.29,0,0a1.46,1.46,0,0,1-.16-.19,2.55,2.55,0,0,1-.24-.39l-.09-.2a2.63,2.63,0,0,1-.16-1.14.15.15,0,0,1,0-.07A2.53,2.53,0,0,1,483,247c0-.08.07-.15.1-.22a2.51,2.51,0,0,1,.43-.61l12.73-13.3a2.56,2.56,0,0,1,3.2-.4,3,3,0,0,1,.41.32l13.86,13.3,0,.05A2.47,2.47,0,0,1,514.54,247.77Z"/><line class="cls-17" x1="498.87" y1="241.88" x2="498.87" y2="253.71"/><line class="cls-18" x1="535.22" y1="248.87" x2="535.22" y2="265.14"/><line class="cls-18" x1="549.7" y1="248.87" x2="549.7" y2="265.15"/></g><g id="Layer_12" data-name="Layer 12"><path class="cls-19" d="M340.28,229.61h-19.9V211a33.28,33.28,0,0,0-22.47-31.54,25.74,25.74,0,0,0-6.82-1.57c-2-.12-6.13-.14-8.16,0a26.55,26.55,0,0,0-7.15,1.69A33.33,33.33,0,0,0,253.65,211v59.78a2.62,2.62,0,0,0,2.62,2.62H273.1a2.68,2.68,0,0,0,2.68-2.68V253.9a2.68,2.68,0,0,1,2.68-2.68h16.77a2.68,2.68,0,0,1,2.68,2.68v16.79a2.68,2.68,0,0,0,2.68,2.68H317.7a2.68,2.68,0,0,0,2.68-2.68V251.22h19.9a2.45,2.45,0,0,0,2.45-2.45V232.06A2.46,2.46,0,0,0,340.28,229.61Zm-42.37-2.68a2.68,2.68,0,0,1-2.68,2.68h-16.6a2.68,2.68,0,0,1-2.68-2.68V210.8A11,11,0,0,1,284.69,200a10.89,10.89,0,0,1,4.64,0,10.59,10.59,0,0,1,8.24,8.85,37,37,0,0,1,.34,3.86Z"/><path class="cls-19" d="M241,254.69v15.22a3.46,3.46,0,0,1-3.46,3.46H199.86a3.45,3.45,0,0,1-3.46-3.45v-88.6a3.46,3.46,0,0,1,3.46-3.46h15.22a3.45,3.45,0,0,1,3.45,3.46v66.45a3.45,3.45,0,0,0,3.46,3.45h15.53A3.46,3.46,0,0,1,241,254.69Z"/><path class="cls-19" d="M444.51,180.35V197.5A2.48,2.48,0,0,1,442,200H424.55a2.5,2.5,0,0,0-2.49,2.49v68.45a2.48,2.48,0,0,1-2.49,2.49H402a2.49,2.49,0,0,1-2.49-2.49V202.48A2.49,2.49,0,0,0,397,200H379.85a2.5,2.5,0,0,0-2.49,2.49v68.45a2.48,2.48,0,0,1-2.49,2.49H357.72a2.49,2.49,0,0,1-2.49-2.49V202.48a2.49,2.49,0,0,0-2.49-2.49H329.89a2.41,2.41,0,0,1-2.41-2.41V180.27a2.44,2.44,0,0,1,.7-1.7,2.4,2.4,0,0,1,1.71-.71H442A2.49,2.49,0,0,1,444.51,180.35Z"/><rect class="cls-19" x="211.61" y="322.86" width="65.96" height="22.13" rx="2.6"/><path class="cls-19" d="M431.71,338h-9.58V319.4a33.37,33.37,0,1,0-66.73,0v59.85A2.56,2.56,0,0,0,358,381.8h17.13a2.44,2.44,0,0,0,2.44-2.44V362.07a2.43,2.43,0,0,1,2.42-2.42h17.63a2.43,2.43,0,0,1,2.42,2.42v17.29a2.44,2.44,0,0,0,2.44,2.44h17.25a2.44,2.44,0,0,0,2.44-2.44V359.65h9.58a2.45,2.45,0,0,0,2.45-2.45V340.49A2.46,2.46,0,0,0,431.71,338Zm-32-2.42a2.43,2.43,0,0,1-2.43,2.42H380a2.43,2.43,0,0,1-2.42-2.42V319.23a11.06,11.06,0,0,1,8.71-10.81,10.8,10.8,0,0,1,2.36-.26h.17a10.89,10.89,0,0,1,2.37.26c4.35.95,8.58,3.19,8.57,10.15C399.71,319.55,399.68,330.63,399.67,335.62Z"/><path class="cls-19" d="M342.73,362.34v16.77a2.68,2.68,0,0,1-2.68,2.69H300.84a2.7,2.7,0,0,1-2.69-2.69V288.73a2.7,2.7,0,0,1,2.69-2.69h16.75a2.7,2.7,0,0,1,2.69,2.69V357a2.7,2.7,0,0,0,2.69,2.69h17.08A2.69,2.69,0,0,1,342.73,362.34Z"/><path class="cls-20" d="M207.83,431.23l8.52-28.4h3.4l8.51,28.4h-3.63l-6.58-24-6.58,24Zm4.38-6.56v-3.11h12v3.11Z"/><path class="cls-20" d="M231.68,431.23V402.81H235v28.42Zm1.74-12v-3.15h7.46a4,4,0,0,0,3-1.14A4.39,4.39,0,0,0,245,411.8v-1.47a4.5,4.5,0,0,0-1.09-3.2,3.92,3.92,0,0,0-3-1.17h-7.46v-3.15h7.25a9,9,0,0,1,4.11.89,6.29,6.29,0,0,1,2.65,2.53,7.8,7.8,0,0,1,.93,3.91v1.66a7.88,7.88,0,0,1-.94,3.95,6.32,6.32,0,0,1-2.65,2.57,8.76,8.76,0,0,1-4.1.9Zm12.09,12-5.2-12.89,3.15-.9,5.9,13.79Z"/><path class="cls-20" d="M250.82,406v-3.15h16.92V406Zm6.78,25.25V404.86h3.34v26.37Z"/><path class="cls-20" d="M287.68,418.69a6.16,6.16,0,0,0-4.2,1.3,4.63,4.63,0,0,0-1.49,3.68,4.72,4.72,0,0,0,1.4,3.64,5.49,5.49,0,0,0,3.9,1.3,6,6,0,0,0,5.35-3q1.89-3,1.89-8.6h3.13a22.16,22.16,0,0,1-1.25,7.9,10.25,10.25,0,0,1-3.72,4.94,10.63,10.63,0,0,1-6.15,1.69,7.69,7.69,0,0,1-5.72-2,7.89,7.89,0,0,1-2-5.8,7.45,7.45,0,0,1,1.92-5.37,8.18,8.18,0,0,1,5.4-2.32Zm7.63,12.54-9.64-11.62a21.29,21.29,0,0,1-3-4.71,12,12,0,0,1-1.1-5.08,7.5,7.5,0,0,1,1.78-5.37,7.94,7.94,0,0,1,10.13-.05,7.26,7.26,0,0,1,1.75,5.23v1.11h-3.32v-1.11a4,4,0,0,0-.9-2.83,3.87,3.87,0,0,0-5.19,0,4.35,4.35,0,0,0-.91,3,9.25,9.25,0,0,0,.9,3.95,17.88,17.88,0,0,0,2.58,3.93l11.23,13.53Z"/><path class="cls-20" d="M312.11,431.23v-28.4h3.34v28.4Zm2.31,0v-3.14h6.25a4.71,4.71,0,0,0,3.47-1.18,4.49,4.49,0,0,0,1.19-3.37v-13a4.51,4.51,0,0,0-1.19-3.38,4.74,4.74,0,0,0-3.47-1.17h-6.25v-3.15h6.13a8.38,8.38,0,0,1,6.05,2,7.68,7.68,0,0,1,2.09,5.82V423.4a9,9,0,0,1-.94,4.29,6.11,6.11,0,0,1-2.75,2.64,10,10,0,0,1-4.47.9Z"/><path class="cls-20" d="M333.48,431.23v-28.4h3.34v28.4ZM335.41,406v-3.15h13.28V406Zm0,12.71v-3.12h11.72v3.12Zm0,12.54v-3.14h13.28v3.14Z"/><path class="cls-20" d="M360.61,431.52a11.44,11.44,0,0,1-4-.64,7.3,7.3,0,0,1-2.94-1.95,7.69,7.69,0,0,1-1.69-3.32l3.19-1.27a5.2,5.2,0,0,0,2,3.07,5.84,5.84,0,0,0,3.42,1,6.15,6.15,0,0,0,4-1.12,3.89,3.89,0,0,0,1.37-3.18V423a3.51,3.51,0,0,0-.77-2.4,5.72,5.72,0,0,0-2-1.39,27.14,27.14,0,0,0-2.69-1c-.93-.27-1.84-.57-2.75-.89a10,10,0,0,1-2.49-1.26,5.93,5.93,0,0,1-1.83-2.07,6.87,6.87,0,0,1-.7-3.32V410a7,7,0,0,1,2.18-5.53,9.27,9.27,0,0,1,6.27-1.91,8.31,8.31,0,0,1,5,1.41,7.38,7.38,0,0,1,2.7,4.23l-3.11,1.29A5.63,5.63,0,0,0,364,406.6a4.44,4.44,0,0,0-2.89-.94,5.91,5.91,0,0,0-3.82,1.1A3.83,3.83,0,0,0,356,409.9v.8a3.28,3.28,0,0,0,.85,2.41,6,6,0,0,0,2.22,1.37c.92.35,1.89.68,2.92,1,.88.26,1.74.56,2.6.9a9.9,9.9,0,0,1,2.33,1.29,5.69,5.69,0,0,1,1.69,2.07,7.09,7.09,0,0,1,.65,3.2v1.13A6.91,6.91,0,0,1,367,429.6,9.57,9.57,0,0,1,360.61,431.52Z"/><path class="cls-20" d="M377.11,402.83v28.4h-3.34v-28.4Z"/><path class="cls-20" d="M391,416.13h8.38v6.45a10.85,10.85,0,0,1-1,4.84,6.93,6.93,0,0,1-2.85,3.06,9.26,9.26,0,0,1-4.54,1,10,10,0,0,1-4.62-1,6.62,6.62,0,0,1-2.89-2.87,9.77,9.77,0,0,1-1-4.58V411.48a11,11,0,0,1,1-4.85,6.82,6.82,0,0,1,2.86-3.05,9.29,9.29,0,0,1,4.54-1,8.89,8.89,0,0,1,4.29,1,6.75,6.75,0,0,1,2.77,2.83,11.5,11.5,0,0,1,1.2,4.65h-3.59a6.61,6.61,0,0,0-1.44-3.92,4.16,4.16,0,0,0-3.23-1.32,4.64,4.64,0,0,0-3.72,1.5,6.23,6.23,0,0,0-1.3,4.24v11.61a5.3,5.3,0,0,0,1.34,3.86,5.08,5.08,0,0,0,3.8,1.37,4.72,4.72,0,0,0,3.68-1.44,6.24,6.24,0,0,0,1.3-4.26v-3.36h-5Z"/><path class="cls-20" d="M404.18,431.21V402.83h3.07L419.06,426l-.7.19V402.83h3.28v28.38h-3.12l-11.84-22.95.76-.1v23Z"/></g></svg>