<svg xmlns="http://www.w3.org/2000/svg" viewBox="0 0 245.57 283.51"><defs><style>.cls-1{fill:#c83855;}.cls-1,.cls-11,.cls-2,.cls-3,.cls-4,.cls-5,.cls-6,.cls-7,.cls-8,.cls-9{stroke:#542141;}.cls-1,.cls-10,.cls-11,.cls-12,.cls-13,.cls-2,.cls-3,.cls-4,.cls-5,.cls-6,.cls-7,.cls-8,.cls-9{stroke-miterlimit:10;stroke-width:5px;}.cls-2{fill:#ce5e36;}.cls-3{fill:#d98638;}.cls-4{fill:#542141;}.cls-12,.cls-13,.cls-5{fill:none;}.cls-12,.cls-5{stroke-linecap:round;}.cls-6{fill:#5f9aaf;}.cls-7{fill:#c98f5e;}.cls-10,.cls-8{fill:#fff;}.cls-9{fill:#82b899;}.cls-10,.cls-12,.cls-13{stroke:#542041;}.cls-11{fill:#eab832;}</style></defs><g id="Layer_2" data-name="Layer 2"><g id="Layer_3" data-name="Layer 3"><path class="cls-1" d="M106.14,42v9.49H92c0-1.5,0-4.92,0-6.25.2-21.44.23-6.08.13-18.5a2.55,2.55,0,0,1,4.64-1.49C99.32,28.85,106.14,39.78,106.14,42Z"/><path class="cls-2" d="M209.64,208.31l-47.67.15V126.78h48.16a10.77,10.77,0,0,1,8.5,4.15l22.17,28.48a10.79,10.79,0,0,1,.24,12.91l-22.71,31.52A10.77,10.77,0,0,1,209.64,208.31Z"/><path class="cls-1" d="M36.79,20.54V49H22.65c0-1.5,0-7.92,0-9.25.2-21.44.23-22.08.13-34.5A2.55,2.55,0,0,1,27.45,3.8c2.52,3.6,5.49,7.84,7.39,10.57A10.73,10.73,0,0,1,36.79,20.54Z"/><path class="cls-3" d="M181,137.55V277.6a3.43,3.43,0,0,1-3.42,3.41h-4.62a3.46,3.46,0,0,1-3.46-3.46V273a5.62,5.62,0,0,0-11.24,0v4.6a3.47,3.47,0,0,1-3.47,3.46h-4.44a3.42,3.42,0,0,1-3.42-3.42c0-16-.11-64.55-.11-66.55a8.38,8.38,0,0,0-.2-1,4.41,4.41,0,0,0-.41-.66,1.67,1.67,0,0,0-.23-.23,1.92,1.92,0,0,0-.43-.32,3.66,3.66,0,0,0-.52-.23,4.67,4.67,0,0,0-.76-.12H86.93a2.49,2.49,0,0,0-2.21,2.21c0,.1,0,.19,0,.29V277.6A3.43,3.43,0,0,1,81.29,281H76.67a3.46,3.46,0,0,1-3.46-3.46V273A5.62,5.62,0,0,0,62,273v4.6A3.47,3.47,0,0,1,58.5,281H54.06a3.4,3.4,0,0,1-3.32-2.62v0c0-14.37-.12-64-.13-65.48,0-.64,0-1.26,0-1.87a2.45,2.45,0,0,0,0-.27.69.69,0,0,0,0-.2,2.5,2.5,0,0,0-.07-.26,0,0,0,0,0,0,0c0-.13-.1-.26-.16-.38a2.09,2.09,0,0,0-.17-.28,1.33,1.33,0,0,0-.14-.19,2.39,2.39,0,0,0-.86-.68.88.88,0,0,0-.2-.09l-.16-.05a1.38,1.38,0,0,0-.39-.09l-.36,0H39.3A2.55,2.55,0,0,0,36.75,211c0,3.49.06,54.77,0,66.59h0A3.4,3.4,0,0,1,33.4,281H28.7a3.46,3.46,0,0,1-3.46-3.46v-4.31a5.86,5.86,0,0,0-5.78-5.91A5.64,5.64,0,0,0,14,273v4.6A3.47,3.47,0,0,1,10.53,281H6.09a3.42,3.42,0,0,1-3.42-3.42c0-19.22-.17-102.34-.17-102.34a2.55,2.55,0,0,0,4.35,1.81l14.34-14.32a2.55,2.55,0,0,1,3.61,0l17,17a2.56,2.56,0,0,0,1.09.65l.24.06a2.69,2.69,0,0,0,1,0,1.48,1.48,0,0,0,.41-.12,2.49,2.49,0,0,0,.93-.59l17-17a2.41,2.41,0,0,1,.4-.33,3.88,3.88,0,0,1,.45-.24l.24-.08a2.43,2.43,0,0,1,1.7.08,2.27,2.27,0,0,1,.84.55l0,0L80.31,177a1.62,1.62,0,0,0,.2.18,2.55,2.55,0,0,0,4.2-2V126.78H170.2A10.77,10.77,0,0,1,181,137.55Z"/><path class="cls-4" d="M64.68,20.34v26.5H50.54c0-1.5,0-5.92,0-7.25.2-21.44.23-22.08.13-34.5A2.55,2.55,0,0,1,55.34,3.6l7.39,10.56A10.79,10.79,0,0,1,64.68,20.34Z"/><path class="cls-1" d="M195.89,111.46h-30.6l-17.8,15.32h0c0-13.28,0-26.36,0-39.4,0-7,0-14,0-21h0q0-10.37,0-20.78h2.2a10.81,10.81,0,0,1,8.69,4.4c13.61,18.47,27.87,36.31,41,54.74A4.26,4.26,0,0,1,195.89,111.46Z"/><path class="cls-5" d="M165.29,111.46c-1.66-2.32-17.94-24.11-19.56-26.46"/><path class="cls-5" d="M181,111.46c-1.82-2.54-33.81-45.6-35.24-47.67"/><path class="cls-4" d="M147.49,87.38c0,13,0,26.12,0,39.4h-14c0-7,0-13.66.05-20.09,0-17,0-32.62,0-50.3a10.77,10.77,0,0,1,10.77-10.8h3.23q0,10.42,0,20.78h0C147.49,73.39,147.49,80.37,147.49,87.38Z"/><path class="cls-6" d="M84.71,141.61v33.58a2.53,2.53,0,0,1,0,.28,2.58,2.58,0,0,1-4.19,1.72,1.62,1.62,0,0,1-.2-.18l-14.2-14.2,0,0a2.27,2.27,0,0,0-.84-.55,2.43,2.43,0,0,0-1.7-.08l-.24.08a3.88,3.88,0,0,0-.45.24,2.41,2.41,0,0,0-.4.33l-17,17a2.49,2.49,0,0,1-.93.59,1.48,1.48,0,0,1-.41.12,2.69,2.69,0,0,1-1,0l-.24-.06a2.56,2.56,0,0,1-1.09-.65l-17-17a2.55,2.55,0,0,0-3.61,0L6.85,177.06a2.55,2.55,0,0,1-4.35-1.81s0-32.27,0-33.48a2.56,2.56,0,0,0,4.34,1.53l14.39-14.38a2.55,2.55,0,0,1,3.61,0L41.92,146a2.55,2.55,0,0,0,3.61,0l17-17a2.55,2.55,0,0,1,3.61,0l14,14a2.64,2.64,0,0,0,3.18.45l.36-.23a2.52,2.52,0,0,0,.86-1.18,1.09,1.09,0,0,0,0-.17.94.94,0,0,0,.06-.24S84.71,141.58,84.71,141.61Z"/><path class="cls-7" d="M68.3,70l0,0L54.39,56.6a3,3,0,0,0-.41-.32,2.56,2.56,0,0,0-3.2.4L38.05,70a2.51,2.51,0,0,0-.43.61c0,.07-.07.14-.1.22a2.53,2.53,0,0,0-.15.66,1.88,1.88,0,0,1,.14-.46.54.54,0,0,1,.1-.22,2.51,2.51,0,0,1,.43-.61l12.73-13.3,0-.05A2.47,2.47,0,0,1,54,56.48a3,3,0,0,1,.41.32L68.24,70.1l.05.05A2.48,2.48,0,0,1,69,71.61,2.47,2.47,0,0,0,68.3,70ZM22.65,50.69a1.21,1.21,0,0,0,0-.19V45.82a.13.13,0,0,0,0,.06Z"/><path class="cls-8" d="M69,71.61a2.51,2.51,0,0,1-.78,2L54.39,86.88l0,0-.19.16a2.46,2.46,0,0,1-.59.33,2.69,2.69,0,0,1-.46.14,1.6,1.6,0,0,1-.23,0,2.55,2.55,0,0,1-2.09-.78L38.05,73.51l0-.05a1.46,1.46,0,0,1-.16-.19,2.55,2.55,0,0,1-.24-.39l-.09-.2a2.63,2.63,0,0,1-.16-1.14.15.15,0,0,1,0-.07,2.53,2.53,0,0,1,.15-.66c0-.08.07-.15.1-.22a2.51,2.51,0,0,1,.43-.61l12.73-13.3a2.56,2.56,0,0,1,3.2-.4,3,3,0,0,1,.41.32L68.25,69.9l0,0A2.47,2.47,0,0,1,69,71.61Z"/><line class="cls-5" x1="53.35" y1="65.71" x2="53.35" y2="77.54"/><line class="cls-5" x1="109.16" y1="178.34" x2="101.57" y2="170.41"/><line class="cls-5" x1="159.49" y1="153.25" x2="150.99" y2="144.36"/><line class="cls-5" x1="140.45" y1="152.86" x2="132.27" y2="144.31"/><path class="cls-9" d="M84.71,105.32V141.1a2.76,2.76,0,0,1,0,.51.94.94,0,0,1-.06.24,1.09,1.09,0,0,1,0,.17,2.52,2.52,0,0,1-.86,1.18l-.36.23a2.64,2.64,0,0,1-3.18-.45l-14-14a2.55,2.55,0,0,0-3.61,0l-17,17a2.55,2.55,0,0,1-3.61,0L24.85,128.92a2.55,2.55,0,0,0-3.61,0L6.85,143.3a2.56,2.56,0,0,1-4.34-1.53v0a2.17,2.17,0,0,1,0-.26V52.19A8.23,8.23,0,0,1,10.65,44l12-.12v7a2.67,2.67,0,0,1-.75,1.54L4.33,69.92a2.54,2.54,0,0,0-.76,1.75v.07a2.56,2.56,0,0,0,.75,2l.12.12L21.89,91.34l0,0a2.11,2.11,0,0,1,.3.37h0a2.22,2.22,0,0,1,.31.66h0a1.14,1.14,0,0,1,.06.25c0,.09,0,.17,0,.25a2.26,2.26,0,0,1,0,.26V101a4.26,4.26,0,0,0,4.24,4.26C38.57,105.3,71.25,105.34,84.71,105.32Z"/><line class="cls-5" x1="211.01" y1="164.91" x2="202.75" y2="156.29"/><path class="cls-2" d="M132.8,277.6a3.42,3.42,0,0,1-3.42,3.41h-4.65a3.42,3.42,0,0,1-3.42-3.42V273a5.62,5.62,0,0,0-11.24,0v4.64a3.42,3.42,0,0,1-3.42,3.42h-4.49a3.42,3.42,0,0,1-3.42-3.42c0-19.22,0-52.27-.17-69.11h34.18C132.8,224.45,132.82,258.13,132.8,277.6Z"/><path class="cls-10" d="M115.69,89H70.58a2.5,2.5,0,0,1-2.2-1.78,4,4,0,0,1,0-1.58.28.28,0,0,1,0-.12,2.41,2.41,0,0,1,.59-.86l0,0,11.19-10.7.06,0a4.21,4.21,0,0,1,2.88-1.13h32.35Z"/><path class="cls-11" d="M115.69,89H70.58a2.5,2.5,0,0,1-2.2-1.78,2.38,2.38,0,0,1,0-1.58.28.28,0,0,1,0-.12,2.41,2.41,0,0,1,.59-.86l0,0L79.87,74.23c.11-.11.22-.2.34-.3l.08-.05.06,0a4.21,4.21,0,0,1,2.88-1.13h32.35s-.2-12.27-.2-15.89c0-6.77-3.23-12.78-9.67-12.78l-78.79-.19a4.25,4.25,0,0,0-4.26,4.25v2.4a1.21,1.21,0,0,1,0,.19v.11a2.67,2.67,0,0,1-.75,1.54L4.33,69.91a2.54,2.54,0,0,0-.76,1.75v.07a2.56,2.56,0,0,0,.75,2l17.6,17.6a2.11,2.11,0,0,1,.3.37h0a2.22,2.22,0,0,1,.31.66h0a1.14,1.14,0,0,1,.06.25c0,.09,0,.17,0,.25a2.26,2.26,0,0,1,0,.26V101a4.25,4.25,0,0,0,4.24,4.25c11.67,0,44.35,0,57.81,0l20,0a11,11,0,0,0,11-11Zm-61.3-2.1,0,0-.19.16a2.46,2.46,0,0,1-.59.33,2.69,2.69,0,0,1-.46.14,1.6,1.6,0,0,1-.23,0,2.55,2.55,0,0,1-2.09-.78L38.05,73.5l0,0a1.46,1.46,0,0,1-.16-.19,2.55,2.55,0,0,1-.24-.39l-.09-.2a2.63,2.63,0,0,1-.16-1.14.15.15,0,0,1,0-.07,2.53,2.53,0,0,1,.15-.66c0-.08.07-.15.1-.22a2.51,2.51,0,0,1,.43-.61l12.73-13.3a2.56,2.56,0,0,1,3.2-.4,3,3,0,0,1,.41.32l13.86,13.3,0,0A2.47,2.47,0,0,1,69,71.6a2.51,2.51,0,0,1-.78,2Z"/><line class="cls-12" x1="101.56" y1="64.97" x2="89.19" y2="52.05"/><line class="cls-12" x1="27.03" y1="83.99" x2="14.67" y2="71.08"/><path class="cls-10" d="M69,71.6a2.51,2.51,0,0,1-.78,2L54.39,86.87l0,0-.19.16a2.46,2.46,0,0,1-.59.33,2.69,2.69,0,0,1-.46.14,1.6,1.6,0,0,1-.23,0,2.55,2.55,0,0,1-2.09-.78L38.05,73.5l0,0a1.46,1.46,0,0,1-.16-.19,2.55,2.55,0,0,1-.24-.39l-.09-.2a2.63,2.63,0,0,1-.16-1.14.15.15,0,0,1,0-.07,2.53,2.53,0,0,1,.15-.66c0-.08.07-.15.1-.22a2.51,2.51,0,0,1,.43-.61l12.73-13.3a2.56,2.56,0,0,1,3.2-.4,3,3,0,0,1,.41.32l13.86,13.3,0,0A2.47,2.47,0,0,1,69,71.6Z"/><line class="cls-12" x1="53.35" y1="65.7" x2="53.35" y2="77.54"/><line class="cls-13" x1="89.71" y1="72.7" x2="89.71" y2="88.97"/><line class="cls-13" x1="104.18" y1="72.7" x2="104.18" y2="88.97"/></g></g></svg>