<svg xmlns="http://www.w3.org/2000/svg" viewBox="0 0 249.11 254.26"><defs><style>.cls-1,.cls-2{fill:#542141;}.cls-1{stroke:#542141;stroke-miterlimit:10;}</style></defs><g id="Layer_2" data-name="Layer 2"><g id="Layer_12" data-name="Layer 12"><path class="cls-1" d="M144.38,52.35h-19.9V33.71A33.28,33.28,0,0,0,102,2.17,25.74,25.74,0,0,0,95.19.6c-2-.12-6.13-.14-8.16,0a26.55,26.55,0,0,0-7.15,1.69A33.33,33.33,0,0,0,57.75,33.71V93.49a2.62,2.62,0,0,0,2.62,2.62H77.2a2.68,2.68,0,0,0,2.68-2.68V76.64A2.68,2.68,0,0,1,82.56,74H99.33A2.68,2.68,0,0,1,102,76.64V93.43a2.68,2.68,0,0,0,2.68,2.68H121.8a2.68,2.68,0,0,0,2.68-2.68V74h19.9a2.45,2.45,0,0,0,2.45-2.45V54.8A2.45,2.45,0,0,0,144.38,52.35ZM102,49.67a2.68,2.68,0,0,1-2.68,2.68H82.73a2.68,2.68,0,0,1-2.68-2.68V33.54a11,11,0,0,1,8.74-10.81,10.89,10.89,0,0,1,4.64,0,10.59,10.59,0,0,1,8.24,8.85,37,37,0,0,1,.34,3.86Z"/><path class="cls-1" d="M45.08,77.42V92.64a3.46,3.46,0,0,1-3.46,3.47H4A3.46,3.46,0,0,1,.5,92.65V4.05A3.45,3.45,0,0,1,4,.6H19.17a3.45,3.45,0,0,1,3.46,3.45V70.5A3.46,3.46,0,0,0,26.09,74H41.62A3.46,3.46,0,0,1,45.08,77.42Z"/><path class="cls-1" d="M248.61,3.09V20.24a2.49,2.49,0,0,1-2.49,2.49H228.65a2.49,2.49,0,0,0-2.49,2.49V93.67a2.49,2.49,0,0,1-2.49,2.49H206.08a2.5,2.5,0,0,1-2.49-2.49V25.22a2.48,2.48,0,0,0-2.49-2.49H184a2.49,2.49,0,0,0-2.49,2.49V93.67A2.49,2.49,0,0,1,179,96.16H161.82a2.5,2.5,0,0,1-2.49-2.49V25.22a2.48,2.48,0,0,0-2.49-2.49H134a2.4,2.4,0,0,1-2.41-2.41V3A2.39,2.39,0,0,1,134,.6H246.12A2.48,2.48,0,0,1,248.61,3.09Z"/><rect class="cls-1" x="15.7" y="145.59" width="65.96" height="22.13" rx="2.6"/><path class="cls-1" d="M235.81,160.78h-9.58V142.14a33.37,33.37,0,1,0-66.73,0V202a2.56,2.56,0,0,0,2.56,2.56h17.13a2.44,2.44,0,0,0,2.44-2.44V184.81a2.43,2.43,0,0,1,2.42-2.42h17.63a2.43,2.43,0,0,1,2.42,2.42V202.1a2.44,2.44,0,0,0,2.44,2.44h17.25a2.44,2.44,0,0,0,2.44-2.44V182.39h9.58a2.45,2.45,0,0,0,2.45-2.45V163.23A2.45,2.45,0,0,0,235.81,160.78Zm-32-2.42a2.43,2.43,0,0,1-2.43,2.42H184.05a2.43,2.43,0,0,1-2.42-2.42V142a11.06,11.06,0,0,1,8.71-10.81,10.8,10.8,0,0,1,2.36-.26h.17a10.89,10.89,0,0,1,2.37.26c4.35,1,8.58,3.19,8.57,10.15C203.81,142.29,203.78,153.37,203.77,158.36Z"/><path class="cls-1" d="M146.83,185.08v16.77a2.69,2.69,0,0,1-2.69,2.69h-39.2a2.7,2.7,0,0,1-2.69-2.69V111.47a2.7,2.7,0,0,1,2.69-2.69h16.75a2.7,2.7,0,0,1,2.69,2.69V179.7a2.7,2.7,0,0,0,2.69,2.69h17.07A2.68,2.68,0,0,1,146.83,185.08Z"/><path class="cls-2" d="M11.93,254l8.52-28.4h3.39L32.36,254H28.73l-6.59-24.05L15.56,254Zm4.38-6.57v-3.1h12v3.1Z"/><path class="cls-2" d="M35.78,254V225.55h3.34V254Zm1.74-12v-3.14H45a4,4,0,0,0,3-1.14,4.46,4.46,0,0,0,1.11-3.14v-1.46a4.53,4.53,0,0,0-1.1-3.21,3.89,3.89,0,0,0-3-1.17H37.52v-3.14h7.24a8.78,8.78,0,0,1,4.11.89A6.2,6.2,0,0,1,51.53,229a7.76,7.76,0,0,1,.93,3.9v1.66a8,8,0,0,1-.94,4,6.4,6.4,0,0,1-2.66,2.57,8.83,8.83,0,0,1-4.1.89Zm12.09,12-5.2-12.9,3.15-.89L53.45,254Z"/><path class="cls-2" d="M54.92,228.71v-3.14H71.83v3.14ZM61.7,254V227.6H65V254Z"/><path class="cls-2" d="M91.77,241.43a6.16,6.16,0,0,0-4.2,1.3,4.61,4.61,0,0,0-1.48,3.68,4.74,4.74,0,0,0,1.4,3.64,5.48,5.48,0,0,0,3.89,1.3,6,6,0,0,0,5.35-3q1.9-3,1.9-8.59h3.12a21.94,21.94,0,0,1-1.25,7.9,10.18,10.18,0,0,1-3.72,4.94,10.65,10.65,0,0,1-6.14,1.69,7.71,7.71,0,0,1-5.72-2,7.87,7.87,0,0,1-2-5.8A7.45,7.45,0,0,1,84.81,241a8.15,8.15,0,0,1,5.4-2.33ZM99.41,254l-9.65-11.63a21.24,21.24,0,0,1-3-4.7,12.17,12.17,0,0,1-1.09-5.08,7.45,7.45,0,0,1,1.78-5.37,7.91,7.91,0,0,1,10.13-.05,7.23,7.23,0,0,1,1.74,5.22v1.12H96v-1.12a4,4,0,0,0-.9-2.83,3.88,3.88,0,0,0-5.18,0,4.33,4.33,0,0,0-.91,3,9.21,9.21,0,0,0,.9,3.94,17.88,17.88,0,0,0,2.58,3.93L103.69,254Z"/><path class="cls-2" d="M116.21,254v-28.4h3.34V254Zm2.3,0v-3.15h6.25a4.77,4.77,0,0,0,3.48-1.17,4.55,4.55,0,0,0,1.19-3.38v-13a4.55,4.55,0,0,0-1.19-3.38,4.77,4.77,0,0,0-3.48-1.17h-6.25v-3.14h6.13a8.39,8.39,0,0,1,6.06,2,7.72,7.72,0,0,1,2.09,5.82v12.73a8.89,8.89,0,0,1-.94,4.29,6.08,6.08,0,0,1-2.75,2.65,10,10,0,0,1-4.47.9Z"/><path class="cls-2" d="M137.57,254v-28.4h3.34V254Zm1.94-25.26v-3.14h13.28v3.14Zm0,12.72V238.3h11.72v3.13Zm0,12.54v-3.15h13.28V254Z"/><path class="cls-2" d="M164.7,254.26a11.42,11.42,0,0,1-4-.65,7.3,7.3,0,0,1-2.94-2,7.63,7.63,0,0,1-1.69-3.32l3.18-1.27a5.23,5.23,0,0,0,2,3.08,5.9,5.9,0,0,0,3.41,1,6.12,6.12,0,0,0,4-1.12,3.89,3.89,0,0,0,1.37-3.17v-1.08a3.46,3.46,0,0,0-.78-2.39,5.44,5.44,0,0,0-2-1.4,23.9,23.9,0,0,0-2.68-.95c-.93-.28-1.85-.57-2.76-.89a10.4,10.4,0,0,1-2.49-1.26,5.9,5.9,0,0,1-1.82-2.07,6.89,6.89,0,0,1-.71-3.32v-.76a6.94,6.94,0,0,1,2.19-5.53,9.22,9.22,0,0,1,6.27-1.92,8.31,8.31,0,0,1,5,1.41,7.41,7.41,0,0,1,2.7,4.24l-3.11,1.29a5.59,5.59,0,0,0-1.72-2.87,4.4,4.4,0,0,0-2.89-.94,5.89,5.89,0,0,0-3.82,1.09,3.84,3.84,0,0,0-1.34,3.15v.8a3.28,3.28,0,0,0,.85,2.4,6.23,6.23,0,0,0,2.23,1.38c.92.34,1.89.67,2.92,1,.87.26,1.74.56,2.6.9a9.9,9.9,0,0,1,2.33,1.29,5.69,5.69,0,0,1,1.69,2.07,7.12,7.12,0,0,1,.65,3.2v1.14a6.89,6.89,0,0,1-2.24,5.53Q168.89,254.27,164.7,254.26Z"/><path class="cls-2" d="M181.21,225.57V254h-3.34v-28.4Z"/><path class="cls-2" d="M195.11,238.87h8.38v6.44a11,11,0,0,1-1,4.85,6.82,6.82,0,0,1-2.86,3.05,9.1,9.1,0,0,1-4.54,1,9.92,9.92,0,0,1-4.62-1,6.62,6.62,0,0,1-2.89-2.87,9.87,9.87,0,0,1-1-4.58v-11.6a11,11,0,0,1,1-4.85,6.79,6.79,0,0,1,2.87-3.05,9.18,9.18,0,0,1,4.54-1,8.85,8.85,0,0,1,4.28,1,6.78,6.78,0,0,1,2.78,2.83,11.5,11.5,0,0,1,1.2,4.65h-3.6a6.48,6.48,0,0,0-1.43-3.91,4.16,4.16,0,0,0-3.23-1.32,4.66,4.66,0,0,0-3.72,1.49,6.26,6.26,0,0,0-1.3,4.25v11.6a5.3,5.3,0,0,0,1.33,3.87,5.1,5.1,0,0,0,3.8,1.37,4.73,4.73,0,0,0,3.69-1.45,6.2,6.2,0,0,0,1.29-4.26V242h-5Z"/><path class="cls-2" d="M208.28,254V225.57h3.06l11.82,23.14-.7.2V225.57h3.28V254h-3.13L210.78,231l.76-.1v23Z"/></g></g></svg>