<svg xmlns="http://www.w3.org/2000/svg" viewBox="0 0 258.78 296.75"><defs><style>.cls-1,.cls-10,.cls-12,.cls-2{fill:#fff;}.cls-1,.cls-2{stroke:#fff;}.cls-1,.cls-10,.cls-11,.cls-12,.cls-13,.cls-14,.cls-15,.cls-2,.cls-3,.cls-4,.cls-5,.cls-6,.cls-7,.cls-8,.cls-9{stroke-miterlimit:10;}.cls-1{stroke-width:3px;}.cls-2{stroke-width:3.5px;}.cls-3{fill:#c83855;}.cls-10,.cls-11,.cls-13,.cls-3,.cls-4,.cls-5,.cls-6,.cls-7,.cls-8,.cls-9{stroke:#542141;}.cls-10,.cls-11,.cls-12,.cls-13,.cls-14,.cls-15,.cls-3,.cls-4,.cls-5,.cls-6,.cls-7,.cls-8,.cls-9{stroke-width:5px;}.cls-4{fill:#ce5e36;}.cls-5{fill:#d98638;}.cls-6{fill:#542141;}.cls-14,.cls-15,.cls-7{fill:none;}.cls-14,.cls-7{stroke-linecap:round;}.cls-8{fill:#5f9aaf;}.cls-9{fill:#c98f5e;}.cls-11{fill:#82b899;}.cls-12,.cls-14,.cls-15{stroke:#542041;}.cls-13{fill:#eab832;}</style></defs><g id="Layer_2" data-name="Layer 2"><g id="Layer_15" data-name="Layer 15"><rect class="cls-1" x="97.64" y="99.49" width="36.77" height="29.11"/><path class="cls-2" d="M179.55,295a10.85,10.85,0,0,1-9.08-4.94,10.83,10.83,0,0,1-9.09,4.94h-4.44a10.81,10.81,0,0,1-10.79-10.79c0-12.75-.05-46-.09-60.26v-1.48H98.71v61.75A10.84,10.84,0,0,1,87.92,295H83.29a10.85,10.85,0,0,1-9.08-4.94A10.83,10.83,0,0,1,65.12,295H60.68a10.72,10.72,0,0,1-10.33-7.72A10.8,10.8,0,0,1,40,295H35.33a10.85,10.85,0,0,1-9.09-4.94A10.83,10.83,0,0,1,17.15,295H12.71A10.81,10.81,0,0,1,1.92,284.21c0-18.53-.15-95.95-.16-101.9v-.44c0-1.27,0-30.05,0-33.28,0-.21,0-.38,0-.48V58.81A15.63,15.63,0,0,1,17.2,43.21L22,43.16l0-2.66c.14-15.77.16-17.42.07-28.53A9.86,9.86,0,0,1,24.9,4.91,10.05,10.05,0,0,1,32,2,9.91,9.91,0,0,1,40.11,6.2L47.5,16.76A18.08,18.08,0,0,1,50,21.89c0-2.86,0-5.77,0-10.12a9.8,9.8,0,0,1,2.84-7.06,10.05,10.05,0,0,1,7.1-3A9.93,9.93,0,0,1,68,6l7.39,10.57A18.05,18.05,0,0,1,78.67,27V43.2l12.7,0c0-3.15.08-4,.09-4.32v-.29c0-.62,0-2,0-5.21a9.83,9.83,0,0,1,2.84-7,10.05,10.05,0,0,1,7.1-3,9.9,9.9,0,0,1,8.11,4.24c1.44,2.07,7.56,11,9.82,17.19,6.16,2.93,10.09,9.84,10.09,18.6,0,3.52.2,15.65.2,15.77l.11,16.34v5.33a18.35,18.35,0,0,1-18.34,18.4l-12.65,0V126h34c0-4.36,0-8.59,0-12.73,0-16.66,0-32.16,0-50.27a18.15,18.15,0,0,1,18.14-18.19h5.43a18.23,18.23,0,0,1,14.62,7.4c5.69,7.71,11.59,15.46,17.31,22.95,7.91,10.37,16.09,21.1,23.79,31.88a11.63,11.63,0,0,1-9.47,18.38H174.65L174,126h42.78a18,18,0,0,1,14.31,7l22.17,28.48a18.24,18.24,0,0,1,.41,21.75l-22.71,31.52a18.2,18.2,0,0,1-14.63,7.53l-21.34.07v61.85A10.83,10.83,0,0,1,184.17,295Z"/><path class="cls-2" d="M131.35,295a10.8,10.8,0,0,1-9-4.91,10.8,10.8,0,0,1-9,4.91h-4.49A10.8,10.8,0,0,1,98,284.21c0-20.3,0-52.87-.17-69l-.07-7.44h49l0,7.34c0,16.56.07,50.17,0,69.16A10.8,10.8,0,0,1,136,295Z"/><path class="cls-3" d="M113.1,48.16v9.5H99c0-1.5,0-4.92,0-6.25.2-21.44.23-6.08.13-18.5a2.55,2.55,0,0,1,4.64-1.49C106.29,35,113.1,46,113.1,48.16Z"/><path class="cls-4" d="M216.61,214.48l-47.68.15V133h48.16a10.76,10.76,0,0,1,8.5,4.15l22.17,28.48a10.76,10.76,0,0,1,.24,12.91L225.29,210A10.75,10.75,0,0,1,216.61,214.48Z"/><path class="cls-3" d="M43.76,26.71v28.5H29.62c0-1.5,0-7.92,0-9.25.2-21.44.23-22.08.13-34.5A2.55,2.55,0,0,1,34.42,10c2.52,3.6,5.48,7.85,7.39,10.57A10.73,10.73,0,0,1,43.76,26.71Z"/><path class="cls-5" d="M187.94,143.72v140a3.43,3.43,0,0,1-3.42,3.41H179.9a3.46,3.46,0,0,1-3.46-3.46v-4.6a5.62,5.62,0,0,0-11.24,0v4.6a3.47,3.47,0,0,1-3.47,3.46h-4.44a3.42,3.42,0,0,1-3.42-3.42c0-16-.11-64.55-.11-66.55a8.38,8.38,0,0,0-.2-1,4.41,4.41,0,0,0-.41-.66,1.67,1.67,0,0,0-.23-.23,1.92,1.92,0,0,0-.43-.32,3.66,3.66,0,0,0-.52-.23,4.67,4.67,0,0,0-.76-.12H93.9a2.49,2.49,0,0,0-2.21,2.21c0,.1,0,.19,0,.29v66.61a3.43,3.43,0,0,1-3.42,3.41H83.64a3.46,3.46,0,0,1-3.46-3.46v-4.6a5.62,5.62,0,0,0-11.24,0v4.6a3.47,3.47,0,0,1-3.47,3.46H61a3.4,3.4,0,0,1-3.32-2.62v0c0-14.37-.12-64-.13-65.48,0-.64,0-1.26,0-1.87a2.45,2.45,0,0,0,0-.27.69.69,0,0,0,0-.2,2.5,2.5,0,0,0-.07-.26,0,0,0,0,0,0,0c-.05-.13-.1-.26-.16-.38a2.09,2.09,0,0,0-.17-.28,1.33,1.33,0,0,0-.14-.19,2.39,2.39,0,0,0-.86-.68.88.88,0,0,0-.2-.09l-.16,0a1.38,1.38,0,0,0-.39-.09,2.19,2.19,0,0,0-.36,0H46.27a2.55,2.55,0,0,0-2.55,2.55c0,3.49.06,54.77.05,66.59h0a3.4,3.4,0,0,1-3.4,3.38h-4.7a3.46,3.46,0,0,1-3.46-3.46v-4.31a5.86,5.86,0,0,0-5.78-5.91A5.64,5.64,0,0,0,21,279.12v4.6a3.47,3.47,0,0,1-3.47,3.46H13.06a3.42,3.42,0,0,1-3.42-3.42c0-19.22-.17-102.34-.17-102.34a2.55,2.55,0,0,0,4.35,1.81l14.34-14.32a2.55,2.55,0,0,1,3.61,0l17,17a2.56,2.56,0,0,0,1.09.65,1.05,1.05,0,0,0,.24.06,2.69,2.69,0,0,0,1,0,1.48,1.48,0,0,0,.41-.12,2.49,2.49,0,0,0,.93-.59l17-17a2.41,2.41,0,0,1,.4-.33,3.88,3.88,0,0,1,.45-.24l.24-.08a2.43,2.43,0,0,1,1.7.08,2.27,2.27,0,0,1,.84.55l0,0,14.2,14.2a1.62,1.62,0,0,0,.2.18,2.55,2.55,0,0,0,4.2-2V133h85.49A10.77,10.77,0,0,1,187.94,143.72Z"/><path class="cls-6" d="M71.64,26.51V53H57.5c0-1.5,0-5.92,0-7.25.2-21.44.23-22.08.13-34.5A2.55,2.55,0,0,1,62.3,9.77c2.53,3.6,5.49,7.84,7.4,10.57A10.72,10.72,0,0,1,71.64,26.51Z"/><path class="cls-3" d="M202.86,117.63h-30.6L154.46,133h0c0-13.28,0-26.36,0-39.4,0-7,0-14,0-21h0q0-10.37,0-20.78h2.2a10.78,10.78,0,0,1,8.68,4.4c13.62,18.47,27.87,36.31,41,54.74A4.26,4.26,0,0,1,202.86,117.63Z"/><path class="cls-7" d="M172.26,117.63c-1.66-2.32-17.95-24.11-19.57-26.46"/><path class="cls-7" d="M187.94,117.63C186.12,115.09,154.12,72,152.69,70"/><path class="cls-6" d="M154.46,93.55c0,13,0,26.12,0,39.4h-14c0-7,0-13.66.05-20.09,0-17,0-32.62,0-50.3a10.77,10.77,0,0,1,10.77-10.8h3.23q0,10.43,0,20.78h0C154.46,79.56,154.46,86.54,154.46,93.55Z"/><path class="cls-8" d="M91.68,147.78v33.58a2.53,2.53,0,0,1,0,.28,2.58,2.58,0,0,1-4.19,1.72,1.62,1.62,0,0,1-.2-.18L73.08,169l0,0a2.27,2.27,0,0,0-.84-.55,2.43,2.43,0,0,0-1.7-.08l-.24.08a3.88,3.88,0,0,0-.45.24,2.41,2.41,0,0,0-.4.33l-17,17a2.49,2.49,0,0,1-.93.59,1.48,1.48,0,0,1-.41.12,2.69,2.69,0,0,1-1,0,1.05,1.05,0,0,1-.24-.06,2.56,2.56,0,0,1-1.09-.65l-17-17a2.55,2.55,0,0,0-3.61,0L13.82,183.23a2.55,2.55,0,0,1-4.35-1.81s0-32.27,0-33.48a2.56,2.56,0,0,0,4.34,1.53l14.39-14.38a2.55,2.55,0,0,1,3.61,0l17.07,17.07a2.55,2.55,0,0,0,3.61,0l17-17a2.55,2.55,0,0,1,3.61,0l14,14a2.64,2.64,0,0,0,3.18.45l.36-.23a2.52,2.52,0,0,0,.86-1.18,1.09,1.09,0,0,0,0-.17.94.94,0,0,0,.06-.24S91.68,147.75,91.68,147.78Z"/><path class="cls-9" d="M75.27,76.12l0-.05L61.36,62.77a3,3,0,0,0-.41-.32,2.56,2.56,0,0,0-3.2.4L45,76.15a2.51,2.51,0,0,0-.43.61c0,.07-.07.14-.1.22a2.53,2.53,0,0,0-.15.66,1.88,1.88,0,0,1,.14-.46.54.54,0,0,1,.1-.22,2.51,2.51,0,0,1,.43-.61l12.73-13.3,0,0a2.47,2.47,0,0,1,3.16-.35,3,3,0,0,1,.41.32l13.86,13.3.05,0A2.48,2.48,0,0,1,76,77.78,2.47,2.47,0,0,0,75.27,76.12ZM29.62,56.86a1.21,1.21,0,0,0,0-.19V52a.13.13,0,0,0,0,.06Z"/><path class="cls-10" d="M76,77.78a2.51,2.51,0,0,1-.78,2L61.36,93.05l0,0-.19.16a2.46,2.46,0,0,1-.59.33,2.69,2.69,0,0,1-.46.14,1.6,1.6,0,0,1-.23,0A2.55,2.55,0,0,1,57.75,93L45,79.68l0-.05a1.46,1.46,0,0,1-.16-.19,2.55,2.55,0,0,1-.24-.39l-.09-.2a2.63,2.63,0,0,1-.16-1.14.15.15,0,0,1,0-.07,2.53,2.53,0,0,1,.15-.66c0-.08.07-.15.1-.22a2.51,2.51,0,0,1,.43-.61l12.73-13.3a2.56,2.56,0,0,1,3.2-.4,3,3,0,0,1,.41.32l13.86,13.3,0,.05A2.47,2.47,0,0,1,76,77.78Z"/><line class="cls-7" x1="60.32" y1="71.88" x2="60.32" y2="83.72"/><line class="cls-7" x1="116.13" y1="184.51" x2="108.54" y2="176.58"/><line class="cls-7" x1="166.45" y1="159.42" x2="157.95" y2="150.54"/><line class="cls-7" x1="147.42" y1="159.03" x2="139.23" y2="150.48"/><path class="cls-11" d="M91.68,111.49v35.78a2.76,2.76,0,0,1-.05.51.94.94,0,0,1-.06.24,1.09,1.09,0,0,1,0,.17,2.52,2.52,0,0,1-.86,1.18l-.36.23a2.64,2.64,0,0,1-3.18-.45l-14-14a2.55,2.55,0,0,0-3.61,0l-17,17a2.55,2.55,0,0,1-3.61,0L31.82,135.09a2.55,2.55,0,0,0-3.61,0L13.82,149.47a2.56,2.56,0,0,1-4.34-1.53v0a2.17,2.17,0,0,1,0-.26V58.36a8.23,8.23,0,0,1,8.15-8.23l12-.12v7a2.67,2.67,0,0,1-.75,1.54L11.3,76.09a2.54,2.54,0,0,0-.76,1.75v.07a2.56,2.56,0,0,0,.75,2l.12.12L28.86,97.51l0,0a2.11,2.11,0,0,1,.3.37h0a2.22,2.22,0,0,1,.31.66h0a1.14,1.14,0,0,1,.06.25c0,.09,0,.17,0,.25a2.26,2.26,0,0,1,0,.26v7.85a4.26,4.26,0,0,0,4.24,4.26C45.54,111.47,78.22,111.51,91.68,111.49Z"/><line class="cls-7" x1="217.97" y1="171.08" x2="209.72" y2="162.46"/><path class="cls-4" d="M139.77,283.77a3.42,3.42,0,0,1-3.42,3.41H131.7a3.42,3.42,0,0,1-3.42-3.42v-4.64a5.62,5.62,0,0,0-11.24,0v4.64a3.42,3.42,0,0,1-3.42,3.42h-4.49a3.42,3.42,0,0,1-3.42-3.42c0-19.22,0-52.27-.17-69.11h34.18C139.77,230.62,139.79,264.3,139.77,283.77Z"/><path class="cls-12" d="M122.66,95.14H77.55a2.5,2.5,0,0,1-2.2-1.78,4,4,0,0,1,0-1.58.28.28,0,0,1,0-.12,2.41,2.41,0,0,1,.59-.86l0,0,11.19-10.7.06,0a4.21,4.21,0,0,1,2.88-1.13h32.35Z"/><path class="cls-13" d="M122.66,95.14H77.55a2.5,2.5,0,0,1-2.2-1.78,2.38,2.38,0,0,1,0-1.58.28.28,0,0,1,0-.12,2.41,2.41,0,0,1,.59-.86l0,0L86.84,80.4c.11-.11.22-.2.34-.3l.08,0,.06,0a4.21,4.21,0,0,1,2.88-1.13h32.35s-.2-12.27-.2-15.89c0-6.77-3.23-12.78-9.67-12.78L33.89,50a4.25,4.25,0,0,0-4.26,4.25v2.4a1.21,1.21,0,0,1,0,.19V57a2.67,2.67,0,0,1-.75,1.54L11.3,76.08a2.54,2.54,0,0,0-.76,1.75v.07a2.56,2.56,0,0,0,.75,2l17.6,17.6a2.11,2.11,0,0,1,.3.37h0a2.22,2.22,0,0,1,.31.66h0a1.14,1.14,0,0,1,.06.25c0,.09,0,.17,0,.25a2.26,2.26,0,0,1,0,.26v7.86a4.25,4.25,0,0,0,4.24,4.25c11.67,0,44.35,0,57.81,0l20,0a11,11,0,0,0,11-11ZM61.36,93l0,0-.19.16a2.46,2.46,0,0,1-.59.33,2.69,2.69,0,0,1-.46.14,1.6,1.6,0,0,1-.23,0A2.55,2.55,0,0,1,57.75,93L45,79.67l0,0a1.46,1.46,0,0,1-.16-.19,2.55,2.55,0,0,1-.24-.39l-.09-.2a2.63,2.63,0,0,1-.16-1.14.15.15,0,0,1,0-.07,2.53,2.53,0,0,1,.15-.66c0-.08.07-.15.1-.22a2.51,2.51,0,0,1,.43-.61l12.73-13.3a2.56,2.56,0,0,1,3.2-.4,3,3,0,0,1,.41.32l13.86,13.3,0,0A2.47,2.47,0,0,1,76,77.77a2.51,2.51,0,0,1-.78,2Z"/><line class="cls-14" x1="108.52" y1="71.14" x2="96.16" y2="58.23"/><line class="cls-14" x1="34" y1="90.17" x2="21.64" y2="77.25"/><path class="cls-12" d="M76,77.77a2.51,2.51,0,0,1-.78,2L61.36,93l0,0-.19.16a2.46,2.46,0,0,1-.59.33,2.69,2.69,0,0,1-.46.14,1.6,1.6,0,0,1-.23,0A2.55,2.55,0,0,1,57.75,93L45,79.67l0,0a1.46,1.46,0,0,1-.16-.19,2.55,2.55,0,0,1-.24-.39l-.09-.2a2.63,2.63,0,0,1-.16-1.14.15.15,0,0,1,0-.07,2.53,2.53,0,0,1,.15-.66c0-.08.07-.15.1-.22a2.51,2.51,0,0,1,.43-.61l12.73-13.3a2.56,2.56,0,0,1,3.2-.4,3,3,0,0,1,.41.32l13.86,13.3,0,0A2.47,2.47,0,0,1,76,77.77Z"/><line class="cls-14" x1="60.32" y1="71.87" x2="60.32" y2="83.71"/><line class="cls-15" x1="96.67" y1="78.87" x2="96.67" y2="95.14"/><line class="cls-15" x1="111.15" y1="78.87" x2="111.15" y2="95.14"/></g></g></svg>