<svg xmlns="http://www.w3.org/2000/svg" viewBox="0 0 595.75 345.03"><defs><style>.cls-1{fill:#c83855;}.cls-1,.cls-10,.cls-11,.cls-12,.cls-14,.cls-17,.cls-2,.cls-3,.cls-4,.cls-5,.cls-6,.cls-7,.cls-8,.cls-9{stroke:#542141;}.cls-1,.cls-10,.cls-11,.cls-12,.cls-13,.cls-14,.cls-15,.cls-16,.cls-17,.cls-2,.cls-3,.cls-4,.cls-5,.cls-6,.cls-7,.cls-8,.cls-9{stroke-miterlimit:10;}.cls-1,.cls-10,.cls-11,.cls-13,.cls-14,.cls-15,.cls-16,.cls-2,.cls-3,.cls-4,.cls-5,.cls-6,.cls-7,.cls-8,.cls-9{stroke-width:5px;}.cls-2{fill:#ce5e36;}.cls-3{fill:#d98638;}.cls-11,.cls-12,.cls-17,.cls-18,.cls-4{fill:#542141;}.cls-15,.cls-16,.cls-5{fill:none;}.cls-11,.cls-15,.cls-5,.cls-9{stroke-linecap:round;}.cls-6{fill:#5f9aaf;}.cls-7{fill:#c98f5e;}.cls-13,.cls-8{fill:#fff;}.cls-9{fill:#2b2129;}.cls-10{fill:#82b899;}.cls-12{stroke-width:2px;}.cls-13,.cls-15,.cls-16{stroke:#542041;}.cls-14{fill:#eab832;}</style></defs><g id="Layer_2" data-name="Layer 2"><g id="Layer_3" data-name="Layer 3"><path class="cls-1" d="M444.49,103.51V113H430.35c0-1.5,0-4.92,0-6.25.2-21.44.23-6.08.13-18.5a2.55,2.55,0,0,1,4.64-1.49C437.68,90.37,444.49,101.3,444.49,103.51Z"/><path class="cls-2" d="M548,269.84l-47.68.14V188.3h48.16a10.76,10.76,0,0,1,8.5,4.15l22.17,28.48a10.76,10.76,0,0,1,.24,12.91l-22.71,31.52A10.76,10.76,0,0,1,548,269.84Z"/><path class="cls-1" d="M375.14,82.06v28.5H361c0-1.5,0-7.92,0-9.25.2-21.44.23-22.08.13-34.5a2.55,2.55,0,0,1,4.64-1.49c2.53,3.6,5.49,7.85,7.4,10.57A10.72,10.72,0,0,1,375.14,82.06Z"/><path class="cls-3" d="M519.33,199.07V339.12a3.43,3.43,0,0,1-3.42,3.41h-4.62a3.46,3.46,0,0,1-3.46-3.46v-4.6a5.62,5.62,0,0,0-11.24,0v4.6a3.47,3.47,0,0,1-3.47,3.46h-4.44a3.42,3.42,0,0,1-3.42-3.42c0-16-.11-64.55-.11-66.55a8.38,8.38,0,0,0-.2-1,4.41,4.41,0,0,0-.41-.66,1.67,1.67,0,0,0-.23-.23,1.92,1.92,0,0,0-.43-.32,3.66,3.66,0,0,0-.52-.23,4.67,4.67,0,0,0-.76-.12H425.29a2.49,2.49,0,0,0-2.21,2.21c0,.1,0,.19,0,.29v66.61a3.43,3.43,0,0,1-3.42,3.41H415a3.46,3.46,0,0,1-3.46-3.46v-4.6a5.62,5.62,0,0,0-11.24,0v4.6a3.47,3.47,0,0,1-3.47,3.46h-4.44a3.4,3.4,0,0,1-3.32-2.62v0c0-14.37-.12-64-.13-65.48,0-.64,0-1.26,0-1.87a2.45,2.45,0,0,0,0-.27.69.69,0,0,0,0-.2,2.5,2.5,0,0,0-.07-.26,0,0,0,0,0,0,0c0-.13-.1-.26-.16-.38a2.09,2.09,0,0,0-.17-.28,1.33,1.33,0,0,0-.14-.19,2.39,2.39,0,0,0-.86-.68.88.88,0,0,0-.2-.09l-.16-.05a1.38,1.38,0,0,0-.39-.09l-.36,0h-8.74a2.55,2.55,0,0,0-2.55,2.55c0,3.49.06,54.77.05,66.59h0a3.4,3.4,0,0,1-3.4,3.38h-4.7a3.46,3.46,0,0,1-3.46-3.46v-4.31a5.86,5.86,0,0,0-5.78-5.91,5.64,5.64,0,0,0-5.46,5.62v4.6a3.47,3.47,0,0,1-3.47,3.46h-4.44a3.42,3.42,0,0,1-3.42-3.42c0-19.22-.17-102.34-.17-102.34a2.55,2.55,0,0,0,4.35,1.81l14.34-14.32a2.55,2.55,0,0,1,3.61,0l17,17a2.56,2.56,0,0,0,1.09.65,1.05,1.05,0,0,0,.24.06,2.69,2.69,0,0,0,1,0,1.48,1.48,0,0,0,.41-.12,2.49,2.49,0,0,0,.93-.59l17-17a2.41,2.41,0,0,1,.4-.33,3.88,3.88,0,0,1,.45-.24l.24-.08a2.43,2.43,0,0,1,1.7.08,2.27,2.27,0,0,1,.84.55l0,0,14.2,14.2a1.62,1.62,0,0,0,.2.18,2.55,2.55,0,0,0,4.2-2V188.3h85.49A10.77,10.77,0,0,1,519.33,199.07Z"/><path class="cls-4" d="M403,81.86v26.5H388.89c0-1.5,0-5.92,0-7.25.2-21.44.23-22.08.13-34.5a2.55,2.55,0,0,1,4.64-1.49l7.4,10.57A10.72,10.72,0,0,1,403,81.86Z"/><path class="cls-1" d="M534.25,173h-30.6l-17.8,15.32h0c0-13.28,0-26.36,0-39.4,0-7,0-14,0-21h0q0-10.36,0-20.78H488a10.79,10.79,0,0,1,8.68,4.4c13.62,18.47,27.87,36.31,41,54.74A4.26,4.26,0,0,1,534.25,173Z"/><path class="cls-5" d="M503.65,173c-1.66-2.32-17.95-24.11-19.57-26.46"/><path class="cls-5" d="M519.33,173c-1.82-2.54-33.82-45.6-35.25-47.67"/><path class="cls-4" d="M485.85,148.9c0,13,0,26.12,0,39.4h-14c0-7,0-13.66.05-20.09,0-17,0-32.62,0-50.3a10.77,10.77,0,0,1,10.77-10.8h3.23q0,10.42,0,20.78h0C485.85,134.91,485.85,141.89,485.85,148.9Z"/><path class="cls-6" d="M423.06,203.13v33.58a2.53,2.53,0,0,1,0,.28,2.58,2.58,0,0,1-4.19,1.72,1.62,1.62,0,0,1-.2-.18l-14.2-14.2,0,0a2.27,2.27,0,0,0-.84-.55,2.43,2.43,0,0,0-1.7-.08l-.24.08a3.88,3.88,0,0,0-.45.24,2.41,2.41,0,0,0-.4.33l-17,17a2.49,2.49,0,0,1-.93.59,1.48,1.48,0,0,1-.41.12,2.69,2.69,0,0,1-1,0l-.24-.06a2.56,2.56,0,0,1-1.09-.65l-17-17a2.55,2.55,0,0,0-3.61,0L345.2,238.58a2.55,2.55,0,0,1-4.35-1.81s0-32.27,0-33.48a2.56,2.56,0,0,0,4.34,1.53l14.39-14.38a2.55,2.55,0,0,1,3.61,0l17.07,17.07a2.55,2.55,0,0,0,3.61,0l17-17a2.55,2.55,0,0,1,3.61,0l14,14a2.64,2.64,0,0,0,3.18.45l.36-.23a2.52,2.52,0,0,0,.86-1.18,1.09,1.09,0,0,0,.05-.17.94.94,0,0,0,.06-.24S423.06,203.1,423.06,203.13Z"/><path class="cls-7" d="M406.65,131.47l0-.05-13.86-13.3a3,3,0,0,0-.41-.32,2.56,2.56,0,0,0-3.2.4L376.4,131.5a2.51,2.51,0,0,0-.43.61c0,.07-.07.14-.1.22a2.53,2.53,0,0,0-.15.66,1.88,1.88,0,0,1,.14-.46.54.54,0,0,1,.1-.22,2.51,2.51,0,0,1,.43-.61l12.73-13.3,0-.05a2.47,2.47,0,0,1,3.16-.35,3,3,0,0,1,.41.32l13.86,13.3.05,0a2.48,2.48,0,0,1,.74,1.46A2.47,2.47,0,0,0,406.65,131.47ZM361,112.21a1.21,1.21,0,0,0,0-.19v-4.68a.13.13,0,0,0,0,.06Z"/><path class="cls-8" d="M407.38,133.13a2.51,2.51,0,0,1-.78,2l-13.86,13.3-.05,0-.19.16a2.46,2.46,0,0,1-.59.33,2.69,2.69,0,0,1-.46.14,1.6,1.6,0,0,1-.23,0,2.55,2.55,0,0,1-2.09-.78L376.4,135l0-.05a1.46,1.46,0,0,1-.16-.19,2.55,2.55,0,0,1-.24-.39l-.09-.2a2.63,2.63,0,0,1-.16-1.14.15.15,0,0,1,0-.07,2.53,2.53,0,0,1,.15-.66c0-.08.07-.15.1-.22a2.51,2.51,0,0,1,.43-.61l12.73-13.3a2.56,2.56,0,0,1,3.2-.4,3,3,0,0,1,.41.32l13.86,13.3,0,.05A2.47,2.47,0,0,1,407.38,133.13Z"/><line class="cls-5" x1="391.71" y1="127.23" x2="391.71" y2="139.07"/><line class="cls-5" x1="447.52" y1="239.86" x2="439.93" y2="231.93"/><line class="cls-5" x1="497.84" y1="214.77" x2="489.34" y2="205.89"/><line class="cls-5" x1="478.81" y1="214.38" x2="470.62" y2="205.83"/><line class="cls-9" x1="11.24" y1="175.39" x2="11.63" y2="147.42"/><path class="cls-10" d="M423.06,166.84v35.78a2.76,2.76,0,0,1-.05.51.94.94,0,0,1-.06.24,1.09,1.09,0,0,1-.05.17,2.52,2.52,0,0,1-.86,1.18l-.36.23a2.64,2.64,0,0,1-3.18-.45l-14-14a2.55,2.55,0,0,0-3.61,0l-17,17a2.55,2.55,0,0,1-3.61,0L363.2,190.44a2.55,2.55,0,0,0-3.61,0L345.2,204.82a2.56,2.56,0,0,1-4.34-1.53v0a2.17,2.17,0,0,1,0-.26v-89.3a8.23,8.23,0,0,1,8.15-8.23l12-.12v7a2.67,2.67,0,0,1-.75,1.54l-17.57,17.58a2.54,2.54,0,0,0-.76,1.75v.07a2.56,2.56,0,0,0,.75,2l.12.12,17.45,17.45,0,0a2.11,2.11,0,0,1,.3.37h0a2.22,2.22,0,0,1,.31.66h0a1.14,1.14,0,0,1,.06.25c0,.09,0,.17,0,.25a2.26,2.26,0,0,1,0,.26v7.85a4.26,4.26,0,0,0,4.24,4.26C376.92,166.82,409.6,166.86,423.06,166.84Z"/><line class="cls-9" x1="2.5" y1="161.21" x2="20.38" y2="161.6"/><line class="cls-9" x1="40.02" y1="217.15" x2="40.41" y2="189.17"/><line class="cls-9" x1="31.28" y1="202.96" x2="49.15" y2="203.35"/><line class="cls-11" x1="461.68" y1="30.48" x2="462.08" y2="2.5"/><line class="cls-11" x1="452.94" y1="16.29" x2="470.82" y2="16.68"/><line class="cls-9" x1="584.12" y1="124.62" x2="584.51" y2="96.64"/><line class="cls-9" x1="575.38" y1="110.43" x2="593.25" y2="110.82"/><circle class="cls-12" cx="494.86" cy="47.63" r="3.98"/><circle class="cls-12" cx="56.48" cy="129.04" r="3.98"/><circle class="cls-12" cx="582.11" cy="268.16" r="3.98"/><line class="cls-5" x1="549.36" y1="226.43" x2="541.11" y2="217.81"/><circle class="cls-12" cx="325.03" cy="175.38" r="3.98"/><path class="cls-2" d="M471.15,339.12a3.42,3.42,0,0,1-3.42,3.41h-4.65a3.42,3.42,0,0,1-3.42-3.42v-4.64a5.62,5.62,0,0,0-11.24,0v4.64a3.42,3.42,0,0,1-3.42,3.42h-4.49a3.42,3.42,0,0,1-3.42-3.42c0-19.22,0-52.27-.17-69.11H471.1C471.15,286,471.17,319.65,471.15,339.12Z"/><path class="cls-13" d="M454,150.49H408.93a2.5,2.5,0,0,1-2.2-1.78,4,4,0,0,1,0-1.58.28.28,0,0,1,0-.12,2.41,2.41,0,0,1,.59-.86l.05,0,11.19-10.7.06-.05a4.21,4.21,0,0,1,2.88-1.13h32.35Z"/><path class="cls-14" d="M454,150.49H408.93a2.5,2.5,0,0,1-2.2-1.78,2.38,2.38,0,0,1,0-1.58.28.28,0,0,1,0-.12,2.41,2.41,0,0,1,.59-.86l.05,0,10.77-10.35c.11-.11.22-.2.34-.3l.08,0,.06-.05a4.21,4.21,0,0,1,2.88-1.13h32.35s-.2-12.27-.2-15.89c0-6.77-3.23-12.78-9.67-12.78l-78.79-.19a4.25,4.25,0,0,0-4.26,4.25V112a1.21,1.21,0,0,1,0,.19v.11a2.67,2.67,0,0,1-.75,1.54l-17.57,17.58a2.54,2.54,0,0,0-.76,1.75v.07a2.56,2.56,0,0,0,.75,2l17.6,17.6a2.11,2.11,0,0,1,.3.37h0a2.22,2.22,0,0,1,.31.66h0a1.14,1.14,0,0,1,.06.25c0,.09,0,.17,0,.25a2.26,2.26,0,0,1,0,.26v7.86a4.25,4.25,0,0,0,4.24,4.25c11.67,0,44.35,0,57.81,0l20,0a11,11,0,0,0,11-11Zm-61.3-2.1-.05,0-.19.16a2.46,2.46,0,0,1-.59.33,2.69,2.69,0,0,1-.46.14,1.6,1.6,0,0,1-.23,0,2.55,2.55,0,0,1-2.09-.78L376.4,135l0-.05a1.46,1.46,0,0,1-.16-.19,2.55,2.55,0,0,1-.24-.39l-.09-.2a2.63,2.63,0,0,1-.16-1.14.15.15,0,0,1,0-.07,2.53,2.53,0,0,1,.15-.66c0-.08.07-.15.1-.22a2.51,2.51,0,0,1,.43-.61l12.73-13.3a2.56,2.56,0,0,1,3.2-.4,3,3,0,0,1,.41.32l13.86,13.3,0,.05a2.47,2.47,0,0,1,.73,1.66,2.51,2.51,0,0,1-.78,2Z"/><line class="cls-15" x1="439.91" y1="126.49" x2="427.55" y2="113.58"/><line class="cls-15" x1="365.39" y1="145.52" x2="353.02" y2="132.6"/><path class="cls-13" d="M407.38,133.12a2.51,2.51,0,0,1-.78,2l-13.86,13.3-.05,0-.19.16a2.46,2.46,0,0,1-.59.33,2.69,2.69,0,0,1-.46.14,1.6,1.6,0,0,1-.23,0,2.55,2.55,0,0,1-2.09-.78L376.4,135l0-.05a1.46,1.46,0,0,1-.16-.19,2.55,2.55,0,0,1-.24-.39l-.09-.2a2.63,2.63,0,0,1-.16-1.14.15.15,0,0,1,0-.07,2.53,2.53,0,0,1,.15-.66c0-.08.07-.15.1-.22a2.51,2.51,0,0,1,.43-.61l12.73-13.3a2.56,2.56,0,0,1,3.2-.4,3,3,0,0,1,.41.32l13.86,13.3,0,.05A2.47,2.47,0,0,1,407.38,133.12Z"/><line class="cls-15" x1="391.71" y1="127.23" x2="391.71" y2="139.06"/><line class="cls-16" x1="428.06" y1="134.22" x2="428.06" y2="150.49"/><line class="cls-16" x1="442.54" y1="134.22" x2="442.54" y2="150.49"/></g><g id="Layer_12" data-name="Layer 12"><path class="cls-17" d="M233.12,115h-19.9V96.32a33.28,33.28,0,0,0-22.47-31.54,25.74,25.74,0,0,0-6.82-1.57c-2-.12-6.13-.14-8.16,0a26.55,26.55,0,0,0-7.15,1.69,33.33,33.33,0,0,0-22.13,31.42V156.1a2.62,2.62,0,0,0,2.62,2.62h16.83a2.68,2.68,0,0,0,2.68-2.68V139.25a2.68,2.68,0,0,1,2.68-2.68h16.77a2.68,2.68,0,0,1,2.68,2.68V156a2.68,2.68,0,0,0,2.68,2.68h17.11a2.68,2.68,0,0,0,2.68-2.68V136.57h19.9a2.45,2.45,0,0,0,2.45-2.45V117.41A2.45,2.45,0,0,0,233.12,115Zm-42.37-2.68a2.68,2.68,0,0,1-2.68,2.68h-16.6a2.68,2.68,0,0,1-2.68-2.68V96.15a11,11,0,0,1,8.74-10.81,10.89,10.89,0,0,1,4.64,0,10.59,10.59,0,0,1,8.24,8.85,37,37,0,0,1,.34,3.86Z"/><path class="cls-17" d="M133.82,140v15.23a3.46,3.46,0,0,1-3.46,3.46H92.7a3.46,3.46,0,0,1-3.46-3.46V66.66a3.46,3.46,0,0,1,3.46-3.45h15.22a3.45,3.45,0,0,1,3.45,3.45v66.45a3.46,3.46,0,0,0,3.46,3.46h15.53A3.46,3.46,0,0,1,133.82,140Z"/><path class="cls-17" d="M337.35,65.7V82.85a2.49,2.49,0,0,1-2.49,2.49H317.39a2.49,2.49,0,0,0-2.49,2.49v68.45a2.49,2.49,0,0,1-2.49,2.49H294.82a2.5,2.5,0,0,1-2.49-2.49V87.83a2.48,2.48,0,0,0-2.49-2.49H272.69a2.49,2.49,0,0,0-2.49,2.49v68.45a2.49,2.49,0,0,1-2.49,2.49H250.56a2.5,2.5,0,0,1-2.49-2.49V87.83a2.48,2.48,0,0,0-2.49-2.49H222.73a2.41,2.41,0,0,1-2.41-2.41V65.62a2.44,2.44,0,0,1,.7-1.7,2.4,2.4,0,0,1,1.71-.71H334.86A2.48,2.48,0,0,1,337.35,65.7Z"/><rect class="cls-17" x="104.45" y="208.2" width="65.96" height="22.13" rx="2.6"/><path class="cls-17" d="M324.55,223.39H315V204.75a33.37,33.37,0,1,0-66.73,0v59.84a2.56,2.56,0,0,0,2.56,2.56h17.13a2.44,2.44,0,0,0,2.44-2.44V247.42a2.43,2.43,0,0,1,2.42-2.42h17.63a2.43,2.43,0,0,1,2.42,2.42v17.29a2.44,2.44,0,0,0,2.44,2.44h17.25a2.44,2.44,0,0,0,2.44-2.44V245h9.58a2.45,2.45,0,0,0,2.45-2.45V225.84A2.45,2.45,0,0,0,324.55,223.39Zm-32-2.42a2.43,2.43,0,0,1-2.43,2.42H272.79a2.43,2.43,0,0,1-2.42-2.42V204.58a11.06,11.06,0,0,1,8.71-10.81,10.8,10.8,0,0,1,2.36-.26h.17a10.89,10.89,0,0,1,2.37.26c4.35.95,8.58,3.19,8.57,10.15C292.55,204.9,292.52,216,292.51,221Z"/><path class="cls-17" d="M235.57,247.69v16.77a2.68,2.68,0,0,1-2.69,2.69h-39.2a2.7,2.7,0,0,1-2.69-2.69V174.08a2.7,2.7,0,0,1,2.69-2.69h16.75a2.7,2.7,0,0,1,2.69,2.69v68.23a2.7,2.7,0,0,0,2.69,2.69h17.07A2.68,2.68,0,0,1,235.57,247.69Z"/><path class="cls-18" d="M100.67,316.58l8.52-28.4h3.4l8.51,28.4h-3.63l-6.58-24.05-6.58,24.05Zm4.38-6.57v-3.1h12V310Z"/><path class="cls-18" d="M124.52,316.58V288.16h3.34v28.42Zm1.74-12v-3.14h7.46a4,4,0,0,0,3-1.14,4.4,4.4,0,0,0,1.11-3.14v-1.46a4.53,4.53,0,0,0-1.09-3.21,3.92,3.92,0,0,0-3-1.17h-7.46v-3.14h7.24a8.85,8.85,0,0,1,4.12.89,6.23,6.23,0,0,1,2.65,2.53,7.76,7.76,0,0,1,.93,3.9v1.66a7.92,7.92,0,0,1-.94,4,6.38,6.38,0,0,1-2.65,2.57,8.9,8.9,0,0,1-4.11.89Zm12.09,12-5.2-12.89,3.15-.9,5.9,13.79Z"/><path class="cls-18" d="M143.66,291.32v-3.14h16.92v3.14Zm6.78,25.26V290.21h3.34v26.37Z"/><path class="cls-18" d="M180.52,304a6.16,6.16,0,0,0-4.2,1.3,4.62,4.62,0,0,0-1.49,3.68,4.74,4.74,0,0,0,1.4,3.64,5.49,5.49,0,0,0,3.9,1.3,6,6,0,0,0,5.35-3q1.89-3,1.89-8.59h3.13a22.16,22.16,0,0,1-1.25,7.9,10.3,10.3,0,0,1-3.72,4.94,10.63,10.63,0,0,1-6.15,1.69,7.69,7.69,0,0,1-5.72-2.05,7.91,7.91,0,0,1-2-5.8,7.45,7.45,0,0,1,1.92-5.37,8.24,8.24,0,0,1,5.4-2.33Zm7.63,12.54L178.5,305a21.6,21.6,0,0,1-3-4.71,12,12,0,0,1-1.1-5.08,7.5,7.5,0,0,1,1.78-5.37,7.91,7.91,0,0,1,10.13-.05A7.24,7.24,0,0,1,188,295v1.12h-3.32V295a4,4,0,0,0-.9-2.83,3.9,3.9,0,0,0-5.19,0,4.38,4.38,0,0,0-.91,3,9.29,9.29,0,0,0,.9,3.95A18.07,18.07,0,0,0,181.2,303l11.23,13.54Z"/><path class="cls-18" d="M205,316.58v-28.4h3.34v28.4Zm2.3,0v-3.15h6.25a4.75,4.75,0,0,0,3.48-1.17,4.51,4.51,0,0,0,1.19-3.38v-13a4.52,4.52,0,0,0-1.19-3.38,4.75,4.75,0,0,0-3.48-1.17h-6.25v-3.14h6.14a8.38,8.38,0,0,1,6.05,2,7.68,7.68,0,0,1,2.09,5.82v12.73a8.89,8.89,0,0,1-.94,4.29,6.08,6.08,0,0,1-2.75,2.65,10,10,0,0,1-4.47.9Z"/><path class="cls-18" d="M226.32,316.58v-28.4h3.34v28.4Zm1.93-25.26v-3.14h13.28v3.14Zm0,12.72v-3.13H240V304Zm0,12.54v-3.15h13.28v3.15Z"/><path class="cls-18" d="M253.45,316.87a11.44,11.44,0,0,1-4-.65,7.2,7.2,0,0,1-2.94-2,7.63,7.63,0,0,1-1.69-3.32l3.19-1.27a5.19,5.19,0,0,0,2,3.08,5.84,5.84,0,0,0,3.42,1,6.09,6.09,0,0,0,4-1.12,3.89,3.89,0,0,0,1.37-3.17v-1.08A3.5,3.5,0,0,0,258,306a5.69,5.69,0,0,0-2-1.4,23.9,23.9,0,0,0-2.68-.95c-.93-.28-1.84-.57-2.75-.89a10,10,0,0,1-2.49-1.26,5.93,5.93,0,0,1-1.83-2.07,6.9,6.9,0,0,1-.7-3.32v-.76a7,7,0,0,1,2.18-5.53,9.22,9.22,0,0,1,6.27-1.91,8.31,8.31,0,0,1,5,1.4,7.41,7.41,0,0,1,2.7,4.24l-3.11,1.29a5.59,5.59,0,0,0-1.72-2.87A4.39,4.39,0,0,0,254,291a5.91,5.91,0,0,0-3.82,1.09,3.84,3.84,0,0,0-1.33,3.15v.8a3.24,3.24,0,0,0,.85,2.4,6.1,6.1,0,0,0,2.22,1.38c.92.34,1.89.67,2.92,1,.87.27,1.74.56,2.6.9a9.9,9.9,0,0,1,2.33,1.29,5.69,5.69,0,0,1,1.69,2.07,7.14,7.14,0,0,1,.65,3.21v1.13a6.92,6.92,0,0,1-2.24,5.54A9.57,9.57,0,0,1,253.45,316.87Z"/><path class="cls-18" d="M270,288.18v28.4h-3.34v-28.4Z"/><path class="cls-18" d="M283.86,301.48h8.38v6.44a10.9,10.9,0,0,1-1,4.85,6.86,6.86,0,0,1-2.85,3.05,9.15,9.15,0,0,1-4.54,1.05,9.92,9.92,0,0,1-4.62-1,6.52,6.52,0,0,1-2.89-2.87,9.72,9.72,0,0,1-1-4.58v-11.6a11,11,0,0,1,1-4.85,6.77,6.77,0,0,1,2.86-3.05,9.18,9.18,0,0,1,4.54-1,8.89,8.89,0,0,1,4.29.95,6.81,6.81,0,0,1,2.77,2.83,11.5,11.5,0,0,1,1.2,4.65h-3.59a6.57,6.57,0,0,0-1.44-3.91,4.16,4.16,0,0,0-3.23-1.32,4.66,4.66,0,0,0-3.72,1.49,6.26,6.26,0,0,0-1.3,4.25v11.6a5.31,5.31,0,0,0,1.34,3.87,5.08,5.08,0,0,0,3.8,1.37,4.72,4.72,0,0,0,3.68-1.45,6.2,6.2,0,0,0,1.3-4.26V304.6h-5Z"/><path class="cls-18" d="M297,316.56V288.18h3.07l11.81,23.14-.7.2V288.18h3.28v28.38h-3.12l-11.84-22.95.76-.1v23.05Z"/></g></g></svg>